<svg id="visual" viewBox="0 0 900 600" width="900" height="600" xmlns="http://www.w3.org/2000/svg" xmlns:xlink="http://www.w3.org/1999/xlink" version="1.1"><path d="M0 25L75 40C150 55 300 85 450 80.8C600 76.7 750 38.3 825 19.2L900 0L900 0L825 0C750 0 600 0 450 0C300 0 150 0 75 0L0 0Z" fill="#6198ff"></path><path d="M0 283L75 271C150 259 300 235 450 203C600 171 750 131 825 111L900 91L900 0L825 18.8C750 37.7 600 75.3 450 79.2C300 83 150 53 75 38L0 23Z" fill="#4385ff"></path><path d="M0 283L75 301C150 319 300 355 450 364C600 373 750 355 825 346L900 337L900 89L825 109C750 129 600 169 450 201C300 233 150 257 75 269L0 281Z" fill="#2071ff"></path><path d="M0 367L75 375C150 383 300 399 450 395C600 391 750 367 825 355L900 343L900 335L825 344C750 353 600 371 450 362C300 353 150 317 75 299L0 281Z" fill="#0061f1"></path><path d="M0 457L75 465C150 473 300 489 450 478C600 467 750 429 825 410L900 391L900 341L825 353C750 365 600 389 450 393C300 397 150 381 75 373L0 365Z" fill="#0056d6"></path><path d="M0 601L75 601C150 601 300 601 450 601C600 601 750 601 825 601L900 601L900 389L825 408C750 427 600 465 450 476C300 487 150 471 75 463L0 455Z" fill="#004cbb"></path></svg>