<svg id="visual" viewBox="0 0 1440 768" width="1440" height="768" xmlns="http://www.w3.org/2000/svg" xmlns:xlink="http://www.w3.org/1999/xlink" version="1.1"><rect x="0" y="0" width="1440" height="768" fill="#fff"></rect><path d="M0 223L34.3 236.2C68.7 249.3 137.3 275.7 205.8 279.3C274.3 283 342.7 264 411.2 257.8C479.7 251.7 548.3 258.3 617 256.5C685.7 254.7 754.3 244.3 823 240.2C891.7 236 960.3 238 1028.8 238C1097.3 238 1165.7 236 1234.2 236.5C1302.7 237 1371.3 240 1405.7 241.5L1440 243L1440 0L1405.7 0C1371.3 0 1302.7 0 1234.2 0C1165.7 0 1097.3 0 1028.8 0C960.3 0 891.7 0 823 0C754.3 0 685.7 0 617 0C548.3 0 479.7 0 411.2 0C342.7 0 274.3 0 205.8 0C137.3 0 68.7 0 34.3 0L0 0Z" fill="#4ffbdf"></path><path d="M0 248L34.3 237.8C68.7 227.7 137.3 207.3 205.8 195.8C274.3 184.3 342.7 181.7 411.2 193C479.7 204.3 548.3 229.7 617 237.3C685.7 245 754.3 235 823 231.8C891.7 228.7 960.3 232.3 1028.8 238.3C1097.3 244.3 1165.7 252.7 1234.2 252.8C1302.7 253 1371.3 245 1405.7 241L1440 237L1440 0L1405.7 0C1371.3 0 1302.7 0 1234.2 0C1165.7 0 1097.3 0 1028.8 0C960.3 0 891.7 0 823 0C754.3 0 685.7 0 617 0C548.3 0 479.7 0 411.2 0C342.7 0 274.3 0 205.8 0C137.3 0 68.7 0 34.3 0L0 0Z" fill="#00e8f5"></path><path d="M0 180L34.3 176.2C68.7 172.3 137.3 164.7 205.8 166.7C274.3 168.7 342.7 180.3 411.2 181.2C479.7 182 548.3 172 617 169.2C685.7 166.3 754.3 170.7 823 164C891.7 157.3 960.3 139.7 1028.8 143.8C1097.3 148 1165.7 174 1234.2 184.5C1302.7 195 1371.3 190 1405.7 187.5L1440 185L1440 0L1405.7 0C1371.3 0 1302.7 0 1234.2 0C1165.7 0 1097.3 0 1028.8 0C960.3 0 891.7 0 823 0C754.3 0 685.7 0 617 0C548.3 0 479.7 0 411.2 0C342.7 0 274.3 0 205.8 0C137.3 0 68.7 0 34.3 0L0 0Z" fill="#00d2fe"></path><path d="M0 148L34.3 136.3C68.7 124.7 137.3 101.3 205.8 88.7C274.3 76 342.7 74 411.2 85.3C479.7 96.7 548.3 121.3 617 127C685.7 132.7 754.3 119.3 823 115.5C891.7 111.7 960.3 117.3 1028.8 111.7C1097.3 106 1165.7 89 1234.2 88.3C1302.7 87.7 1371.3 103.3 1405.7 111.2L1440 119L1440 0L1405.7 0C1371.3 0 1302.7 0 1234.2 0C1165.7 0 1097.3 0 1028.8 0C960.3 0 891.7 0 823 0C754.3 0 685.7 0 617 0C548.3 0 479.7 0 411.2 0C342.7 0 274.3 0 205.8 0C137.3 0 68.7 0 34.3 0L0 0Z" fill="#00b9ff"></path><path d="M0 60L34.3 64.3C68.7 68.7 137.3 77.3 205.8 77.5C274.3 77.7 342.7 69.3 411.2 65.3C479.7 61.3 548.3 61.7 617 62.3C685.7 63 754.3 64 823 65.7C891.7 67.3 960.3 69.7 1028.8 68.8C1097.3 68 1165.7 64 1234.2 64C1302.7 64 1371.3 68 1405.7 70L1440 72L1440 0L1405.7 0C1371.3 0 1302.7 0 1234.2 0C1165.7 0 1097.3 0 1028.8 0C960.3 0 891.7 0 823 0C754.3 0 685.7 0 617 0C548.3 0 479.7 0 411.2 0C342.7 0 274.3 0 205.8 0C137.3 0 68.7 0 34.3 0L0 0Z" fill="#009efa"></path></svg>